<svg xmlns="http://www.w3.org/2000/svg" viewBox="0 0 800 300" width="800" height="300">
  <defs>
    <linearGradient id="bg" x1="0" y1="0" x2="0" y2="1">
      <stop offset="0%" stop-color="#0d1117"/>
      <stop offset="100%" stop-color="#0a0e14"/>
    </linearGradient>
    <linearGradient id="fracture" x1="0" y1="0" x2="1" y2="0">
      <stop offset="0%" stop-color="#ff3333" stop-opacity="0.3"/>
      <stop offset="50%" stop-color="#ff0000" stop-opacity="0.9"/>
      <stop offset="100%" stop-color="#ff3333" stop-opacity="0.3"/>
    </linearGradient>
    <linearGradient id="seismo" x1="0" y1="0" x2="1" y2="0">
      <stop offset="0%" stop-color="#ffa500" stop-opacity="0.3"/>
      <stop offset="50%" stop-color="#ffa500" stop-opacity="0.9"/>
      <stop offset="100%" stop-color="#ffa500" stop-opacity="0.3"/>
    </linearGradient>
    <filter id="glow">
      <feGaussianBlur stdDeviation="3" result="blur"/>
      <feMerge>
        <feMergeNode in="blur"/>
        <feMergeNode in="SourceGraphic"/>
      </feMerge>
    </filter>
    <filter id="softglow">
      <feGaussianBlur stdDeviation="8"/>
    </filter>
  </defs>

  <!-- Background -->
  <rect width="800" height="300" fill="url(#bg)"/>

  <!-- Grid lines -->
  <line x1="0" y1="75" x2="800" y2="75" stroke="#ffffff" stroke-opacity="0.04" stroke-width="0.5"/>
  <line x1="0" y1="150" x2="800" y2="150" stroke="#ffffff" stroke-opacity="0.04" stroke-width="0.5"/>
  <line x1="0" y1="225" x2="800" y2="225" stroke="#ffffff" stroke-opacity="0.04" stroke-width="0.5"/>

  <!-- === SURFACE LAYER === -->

  <!-- Surface blocks -->
  <rect x="15" y="210" width="44" height="38" fill="#2a3040" opacity="0.85" rx="1"/>
  <rect x="15" y="214" width="44" height="28" fill="#353d50" opacity="0.7" rx="1"/>
  <rect x="63" y="210" width="44" height="38" fill="#2a3040" opacity="0.85" rx="1"/>
  <rect x="63" y="214" width="44" height="28" fill="#353d50" opacity="0.7" rx="1"/>
  <rect x="111" y="210" width="44" height="38" fill="#2a3040" opacity="0.85" rx="1"/>
  <rect x="111" y="214" width="44" height="28" fill="#353d50" opacity="0.7" rx="1"/>
  <rect x="159" y="210" width="44" height="38" fill="#2a3040" opacity="0.85" rx="1"/>
  <rect x="159" y="214" width="44" height="28" fill="#353d50" opacity="0.7" rx="1"/>
  <rect x="207" y="210" width="44" height="38" fill="#2a3040" opacity="0.85" rx="1"/>
  <rect x="207" y="214" width="44" height="28" fill="#353d50" opacity="0.7" rx="1"/>
  <rect x="255" y="210" width="44" height="38" fill="#2a3040" opacity="0.85" rx="1"/>
  <rect x="255" y="214" width="44" height="28" fill="#353d50" opacity="0.7" rx="1"/>
  <rect x="303" y="210" width="44" height="38" fill="#2a3040" opacity="0.85" rx="1"/>
  <rect x="303" y="214" width="44" height="28" fill="#353d50" opacity="0.7" rx="1"/>
  <rect x="351" y="210" width="44" height="38" fill="#2a3040" opacity="0.85" rx="1"/>
  <rect x="351" y="214" width="44" height="28" fill="#353d50" opacity="0.7" rx="1"/>
  <rect x="399" y="210" width="44" height="38" fill="#2a3040" opacity="0.85" rx="1"/>
  <rect x="399" y="214" width="44" height="28" fill="#353d50" opacity="0.7" rx="1"/>
  <rect x="447" y="210" width="44" height="38" fill="#2a3040" opacity="0.85" rx="1"/>
  <rect x="447" y="214" width="44" height="28" fill="#353d50" opacity="0.7" rx="1"/>
  <rect x="495" y="210" width="44" height="38" fill="#2a3040" opacity="0.85" rx="1"/>
  <rect x="495" y="214" width="44" height="28" fill="#353d50" opacity="0.7" rx="1"/>
  <rect x="543" y="210" width="44" height="38" fill="#2a3040" opacity="0.85" rx="1"/>
  <rect x="543" y="214" width="44" height="28" fill="#353d50" opacity="0.7" rx="1"/>
  <rect x="591" y="210" width="44" height="38" fill="#2a3040" opacity="0.85" rx="1"/>
  <rect x="591" y="214" width="44" height="28" fill="#353d50" opacity="0.7" rx="1"/>
  <rect x="639" y="210" width="44" height="38" fill="#2a3040" opacity="0.85" rx="1"/>
  <rect x="639" y="214" width="44" height="28" fill="#353d50" opacity="0.7" rx="1"/>
  <rect x="687" y="210" width="44" height="38" fill="#2a3040" opacity="0.85" rx="1"/>
  <rect x="687" y="214" width="44" height="28" fill="#353d50" opacity="0.7" rx="1"/>
  <rect x="735" y="210" width="44" height="38" fill="#2a3040" opacity="0.85" rx="1"/>
  <rect x="735" y="214" width="44" height="28" fill="#353d50" opacity="0.7" rx="1"/>

  <!-- Fracture line glow -->
  <path d="M 10 205 Q 50 208 100 204 T 200 207 Q 260 210 320 200 T 400 218 Q 460 225 500 212 T 600 206 Q 680 202 750 208 L 790 205"
        stroke="#ff3333" stroke-opacity="0.25" stroke-width="10" fill="none" filter="url(#softglow)"/>
  <!-- Fracture line -->
  <path d="M 10 205 Q 50 208 100 204 T 200 207 Q 260 210 320 200 T 400 218 Q 460 225 500 212 T 600 206 Q 680 202 750 208 L 790 205"
        stroke="url(#fracture)" stroke-width="2.5" fill="none" filter="url(#glow)"/>
  <!-- Fracture spark -->
  <circle cx="400" cy="218" r="3" fill="#ff0000" opacity="0.95"/>
  <circle cx="400" cy="218" r="10" fill="#ff4444" opacity="0.2"/>
  <rect x="288" y="111" width="78" height="27" fill="#1a1f2e" opacity="0.7" rx="1"/>
  <rect x="123" y="111" width="33" height="30" fill="#1a1f2e" opacity="0.7" rx="1"/>
  <rect x="21" y="59" width="78" height="29" fill="#1a1f2e" opacity="0.7" rx="1"/>
  <rect x="143" y="88" width="45" height="23" fill="#1a1f2e" opacity="0.7" rx="1"/>
  <rect x="467" y="79" width="37" height="19" fill="#1a1f2e" opacity="0.7" rx="1"/>
  <rect x="598" y="110" width="40" height="23" fill="#1a1f2e" opacity="0.7" rx="1"/>
  <rect x="464" y="158" width="39" height="15" fill="#2a1525" opacity="0.85" rx="1"/>
  <rect x="615" y="122" width="45" height="16" fill="#1a1f2e" opacity="0.7" rx="1"/>
  <rect x="97" y="153" width="55" height="15" fill="#1a1f2e" opacity="0.7" rx="1"/>
  <rect x="505" y="104" width="46" height="23" fill="#1a1f2e" opacity="0.7" rx="1"/>
  <rect x="737" y="151" width="69" height="31" fill="#1a1f2e" opacity="0.7" rx="1"/>
  <rect x="701" y="36" width="34" height="18" fill="#1a1f2e" opacity="0.7" rx="1"/>
  <rect x="298" y="78" width="44" height="29" fill="#1a1f2e" opacity="0.7" rx="1"/>
  <rect x="415" y="40" width="37" height="28" fill="#2a1525" opacity="0.85" rx="1"/>
  <rect x="588" y="140" width="40" height="14" fill="#1a1f2e" opacity="0.7" rx="1"/>
  <rect x="555" y="78" width="69" height="15" fill="#1a1f2e" opacity="0.7" rx="1"/>
  <rect x="657" y="39" width="61" height="20" fill="#1a1f2e" opacity="0.7" rx="1"/>
  <rect x="251" y="150" width="66" height="25" fill="#1a1f2e" opacity="0.7" rx="1"/>
  <rect x="95" y="106" width="66" height="28" fill="#1a1f2e" opacity="0.7" rx="1"/>
  <rect x="378" y="33" width="56" height="22" fill="#1a1f2e" opacity="0.7" rx="1"/>
  <rect x="29" y="99" width="62" height="20" fill="#2a1525" opacity="0.85" rx="1"/>
  <rect x="193" y="61" width="51" height="28" fill="#1a1f2e" opacity="0.7" rx="1"/>
  <path d="M 244 61 Q 255 64 260 65 Q 266 66 271 66 Q 276 65 282 64 Q 287 63 292 61" stroke="#ff3333" stroke-width="0.7" fill="none" opacity="0.35"/>
  <path d="M 474 153 Q 482 150 486 149 Q 490 148 493 148 Q 497 149 501 150 Q 505 152 509 153" stroke="#ff3333" stroke-width="0.7" fill="none" opacity="0.35"/>
  <path d="M 648 110 Q 656 114 660 116 Q 663 116 667 116 Q 671 116 675 114 Q 679 112 683 110" stroke="#ff3333" stroke-width="0.7" fill="none" opacity="0.35"/>
  <path d="M 263 54 Q 256 54 253 53 Q 249 53 246 53 Q 243 53 239 54 Q 236 54 232 54" stroke="#ff3333" stroke-width="0.7" fill="none" opacity="0.35"/>
  <path d="M 598 152 Q 586 152 580 152 Q 573 152 567 152 Q 561 152 555 152 Q 549 152 543 152" stroke="#ff3333" stroke-width="0.7" fill="none" opacity="0.35"/>
  <path d="M 330 69 Q 320 67 315 67 Q 311 66 306 66 Q 301 67 296 67 Q 292 68 287 69" stroke="#ff3333" stroke-width="0.7" fill="none" opacity="0.35"/>

  <!-- Seismograph fill area -->
  <path d="M 15.0 124.4 L 18.9 126.8 L 22.7 130.4 L 26.6 125.2 L 30.5 123.7 L 34.3 120.6 L 38.2 113.4 L 42.1 115.6 L 46.0 113.5 L 49.8 117.6 L 53.7 109.8 L 57.6 110.6 L 61.4 110.3 L 65.3 108.9 L 69.2 116.9 L 73.0 118.9 L 76.9 122.5 L 80.8 122.0 L 84.6 131.5 L 88.5 128.0 L 92.4 136.0 L 96.3 142.3 L 100.1 135.7 L 104.0 137.1 L 107.9 138.0 L 111.7 134.6 L 115.6 129.2 L 119.5 129.7 L 123.3 122.7 L 127.2 122.0 L 131.1 113.9 L 134.9 115.6 L 138.8 105.8 L 142.7 103.6 L 146.6 103.9 L 150.4 97.1 L 154.3 100.1 L 158.2 103.0 L 162.0 96.7 L 165.9 102.8 L 169.8 105.0 L 173.6 108.5 L 177.5 105.5 L 181.4 107.0 L 185.3 112.8 L 189.1 112.7 L 193.0 112.2 L 196.9 111.1 L 200.7 106.3 L 204.6 105.5 L 208.5 102.0 L 212.3 95.2 L 216.2 97.2 L 220.1 89.2 L 223.9 80.8 L 227.8 81.8 L 231.7 74.7 L 235.6 77.1 L 239.4 76.9 L 243.3 71.9 L 247.2 77.4 L 251.0 77.9 L 254.9 81.5 L 258.8 87.4 L 262.6 85.6 L 266.5 87.8 L 270.4 90.8 L 274.2 93.9 L 278.1 98.1 L 282.0 100.6 L 285.9 101.2 L 289.7 102.4 L 293.6 99.4 L 297.5 101.4 L 301.3 95.0 L 305.2 100.0 L 309.1 92.3 L 312.9 86.3 L 316.8 84.0 L 320.7 86.7 L 324.5 84.5 L 328.4 87.4 L 332.3 88.2 L 336.2 89.2 L 340.0 90.5 L 343.9 92.8 L 347.8 99.9 L 351.6 107.8 L 355.5 110.8 L 359.4 111.6 L 363.2 119.0 L 367.1 122.8 L 371.0 122.0 L 374.8 126.1 L 378.7 126.3 L 382.6 122.9 L 386.5 125.4 L 390.3 124.1 L 394.2 123.1 L 398.1 120.4 L 401.9 111.8 L 405.8 110.6 L 409.7 112.5 L 413.5 111.3 L 417.4 110.9 L 421.3 119.6 L 425.2 112.6 L 429.0 115.9 L 432.9 118.0 L 436.8 120.2 L 440.6 120.9 L 444.5 126.7 L 448.4 125.8 L 452.2 129.5 L 456.1 130.6 L 460.0 132.8 L 463.8 138.3 L 467.7 126.8 L 471.6 131.2 L 475.5 122.7 L 479.3 122.1 L 483.2 122.0 L 487.1 115.3 L 490.9 108.2 L 494.8 105.1 L 498.7 105.1 L 502.5 98.7 L 506.4 98.9 L 510.3 97.2 L 514.1 95.0 L 518.0 102.4 L 521.9 99.7 L 525.8 94.7 L 529.6 102.1 L 533.5 102.1 L 537.4 107.8 L 541.2 105.3 L 545.1 108.1 L 549.0 110.1 L 552.8 110.6 L 556.7 104.3 L 560.6 104.4 L 564.4 101.4 L 568.3 97.7 L 572.2 100.1 L 576.1 92.8 L 579.9 84.9 L 583.8 86.9 L 587.7 86.9 L 591.5 81.9 L 595.4 74.1 L 599.3 76.2 L 603.1 80.9 L 607.0 77.3 L 610.9 82.2 L 614.7 85.7 L 618.6 84.6 L 622.5 90.2 L 626.4 85.5 L 630.2 94.2 L 634.1 98.8 L 638.0 98.4 L 641.8 107.0 L 645.7 99.9 L 649.6 102.2 L 653.4 102.8 L 657.3 104.6 L 661.2 95.5 L 665.1 99.9 L 668.9 94.8 L 672.8 90.4 L 676.7 92.5 L 680.5 90.9 L 684.4 88.7 L 688.3 91.0 L 692.1 91.4 L 696.0 94.9 L 699.9 99.2 L 703.7 105.1 L 707.6 101.9 L 711.5 114.4 L 715.4 108.2 L 719.2 116.5 L 723.1 121.6 L 727.0 123.4 L 730.8 123.0 L 734.7 125.0 L 738.6 124.4 L 742.4 123.4 L 746.3 125.6 L 750.2 122.4 L 754.0 117.4 L 757.9 118.9 L 761.8 114.9 L 765.7 114.0 L 769.5 111.8 L 773.4 107.1 L 777.3 107.3 L 781.1 110.9 L 785.0 111.5 L 785 190 L 15 190 Z" fill="#ffa500" fill-opacity="0.04"/>
  <!-- Seismograph glow -->
  <path d="M 15.0 124.4 L 18.9 126.8 L 22.7 130.4 L 26.6 125.2 L 30.5 123.7 L 34.3 120.6 L 38.2 113.4 L 42.1 115.6 L 46.0 113.5 L 49.8 117.6 L 53.7 109.8 L 57.6 110.6 L 61.4 110.3 L 65.3 108.9 L 69.2 116.9 L 73.0 118.9 L 76.9 122.5 L 80.8 122.0 L 84.6 131.5 L 88.5 128.0 L 92.4 136.0 L 96.3 142.3 L 100.1 135.7 L 104.0 137.1 L 107.9 138.0 L 111.7 134.6 L 115.6 129.2 L 119.5 129.7 L 123.3 122.7 L 127.2 122.0 L 131.1 113.9 L 134.9 115.6 L 138.8 105.8 L 142.7 103.6 L 146.6 103.9 L 150.4 97.1 L 154.3 100.1 L 158.2 103.0 L 162.0 96.7 L 165.9 102.8 L 169.8 105.0 L 173.6 108.5 L 177.5 105.5 L 181.4 107.0 L 185.3 112.8 L 189.1 112.7 L 193.0 112.2 L 196.9 111.1 L 200.7 106.3 L 204.6 105.5 L 208.5 102.0 L 212.3 95.2 L 216.2 97.2 L 220.1 89.2 L 223.9 80.8 L 227.8 81.8 L 231.7 74.7 L 235.6 77.1 L 239.4 76.9 L 243.3 71.9 L 247.2 77.4 L 251.0 77.9 L 254.9 81.5 L 258.8 87.4 L 262.6 85.6 L 266.5 87.8 L 270.4 90.8 L 274.2 93.9 L 278.1 98.1 L 282.0 100.6 L 285.9 101.2 L 289.7 102.4 L 293.6 99.4 L 297.5 101.4 L 301.3 95.0 L 305.2 100.0 L 309.1 92.3 L 312.9 86.3 L 316.8 84.0 L 320.7 86.7 L 324.5 84.5 L 328.4 87.4 L 332.3 88.2 L 336.2 89.2 L 340.0 90.5 L 343.9 92.8 L 347.8 99.9 L 351.6 107.8 L 355.5 110.8 L 359.4 111.6 L 363.2 119.0 L 367.1 122.8 L 371.0 122.0 L 374.8 126.1 L 378.7 126.3 L 382.6 122.9 L 386.5 125.4 L 390.3 124.1 L 394.2 123.1 L 398.1 120.4 L 401.9 111.8 L 405.8 110.6 L 409.7 112.5 L 413.5 111.3 L 417.4 110.9 L 421.3 119.6 L 425.2 112.6 L 429.0 115.9 L 432.9 118.0 L 436.8 120.2 L 440.6 120.9 L 444.5 126.7 L 448.4 125.8 L 452.2 129.5 L 456.1 130.6 L 460.0 132.8 L 463.8 138.3 L 467.7 126.8 L 471.6 131.2 L 475.5 122.7 L 479.3 122.1 L 483.2 122.0 L 487.1 115.3 L 490.9 108.2 L 494.8 105.1 L 498.7 105.1 L 502.5 98.7 L 506.4 98.9 L 510.3 97.2 L 514.1 95.0 L 518.0 102.4 L 521.9 99.7 L 525.8 94.7 L 529.6 102.1 L 533.5 102.1 L 537.4 107.8 L 541.2 105.3 L 545.1 108.1 L 549.0 110.1 L 552.8 110.6 L 556.7 104.3 L 560.6 104.4 L 564.4 101.4 L 568.3 97.7 L 572.2 100.1 L 576.1 92.8 L 579.9 84.9 L 583.8 86.9 L 587.7 86.9 L 591.5 81.9 L 595.4 74.1 L 599.3 76.2 L 603.1 80.9 L 607.0 77.3 L 610.9 82.2 L 614.7 85.7 L 618.6 84.6 L 622.5 90.2 L 626.4 85.5 L 630.2 94.2 L 634.1 98.8 L 638.0 98.4 L 641.8 107.0 L 645.7 99.9 L 649.6 102.2 L 653.4 102.8 L 657.3 104.6 L 661.2 95.5 L 665.1 99.9 L 668.9 94.8 L 672.8 90.4 L 676.7 92.5 L 680.5 90.9 L 684.4 88.7 L 688.3 91.0 L 692.1 91.4 L 696.0 94.9 L 699.9 99.2 L 703.7 105.1 L 707.6 101.9 L 711.5 114.4 L 715.4 108.2 L 719.2 116.5 L 723.1 121.6 L 727.0 123.4 L 730.8 123.0 L 734.7 125.0 L 738.6 124.4 L 742.4 123.4 L 746.3 125.6 L 750.2 122.4 L 754.0 117.4 L 757.9 118.9 L 761.8 114.9 L 765.7 114.0 L 769.5 111.8 L 773.4 107.1 L 777.3 107.3 L 781.1 110.9 L 785.0 111.5" stroke="#ffa500" stroke-opacity="0.15" stroke-width="6" fill="none"/>
  <!-- Seismograph line -->
  <path d="M 15.0 124.4 L 18.9 126.8 L 22.7 130.4 L 26.6 125.2 L 30.5 123.7 L 34.3 120.6 L 38.2 113.4 L 42.1 115.6 L 46.0 113.5 L 49.8 117.6 L 53.7 109.8 L 57.6 110.6 L 61.4 110.3 L 65.3 108.9 L 69.2 116.9 L 73.0 118.9 L 76.9 122.5 L 80.8 122.0 L 84.6 131.5 L 88.5 128.0 L 92.4 136.0 L 96.3 142.3 L 100.1 135.7 L 104.0 137.1 L 107.9 138.0 L 111.7 134.6 L 115.6 129.2 L 119.5 129.7 L 123.3 122.7 L 127.2 122.0 L 131.1 113.9 L 134.9 115.6 L 138.8 105.8 L 142.7 103.6 L 146.6 103.9 L 150.4 97.1 L 154.3 100.1 L 158.2 103.0 L 162.0 96.7 L 165.9 102.8 L 169.8 105.0 L 173.6 108.5 L 177.5 105.5 L 181.4 107.0 L 185.3 112.8 L 189.1 112.7 L 193.0 112.2 L 196.9 111.1 L 200.7 106.3 L 204.6 105.5 L 208.5 102.0 L 212.3 95.2 L 216.2 97.2 L 220.1 89.2 L 223.9 80.8 L 227.8 81.8 L 231.7 74.7 L 235.6 77.1 L 239.4 76.9 L 243.3 71.9 L 247.2 77.4 L 251.0 77.9 L 254.9 81.5 L 258.8 87.4 L 262.6 85.6 L 266.5 87.8 L 270.4 90.8 L 274.2 93.9 L 278.1 98.1 L 282.0 100.6 L 285.9 101.2 L 289.7 102.4 L 293.6 99.4 L 297.5 101.4 L 301.3 95.0 L 305.2 100.0 L 309.1 92.3 L 312.9 86.3 L 316.8 84.0 L 320.7 86.7 L 324.5 84.5 L 328.4 87.4 L 332.3 88.2 L 336.2 89.2 L 340.0 90.5 L 343.9 92.8 L 347.8 99.9 L 351.6 107.8 L 355.5 110.8 L 359.4 111.6 L 363.2 119.0 L 367.1 122.8 L 371.0 122.0 L 374.8 126.1 L 378.7 126.3 L 382.6 122.9 L 386.5 125.4 L 390.3 124.1 L 394.2 123.1 L 398.1 120.4 L 401.9 111.8 L 405.8 110.6 L 409.7 112.5 L 413.5 111.3 L 417.4 110.9 L 421.3 119.6 L 425.2 112.6 L 429.0 115.9 L 432.9 118.0 L 436.8 120.2 L 440.6 120.9 L 444.5 126.7 L 448.4 125.8 L 452.2 129.5 L 456.1 130.6 L 460.0 132.8 L 463.8 138.3 L 467.7 126.8 L 471.6 131.2 L 475.5 122.7 L 479.3 122.1 L 483.2 122.0 L 487.1 115.3 L 490.9 108.2 L 494.8 105.1 L 498.7 105.1 L 502.5 98.7 L 506.4 98.9 L 510.3 97.2 L 514.1 95.0 L 518.0 102.4 L 521.9 99.7 L 525.8 94.7 L 529.6 102.1 L 533.5 102.1 L 537.4 107.8 L 541.2 105.3 L 545.1 108.1 L 549.0 110.1 L 552.8 110.6 L 556.7 104.3 L 560.6 104.4 L 564.4 101.4 L 568.3 97.7 L 572.2 100.1 L 576.1 92.8 L 579.9 84.9 L 583.8 86.9 L 587.7 86.9 L 591.5 81.9 L 595.4 74.1 L 599.3 76.2 L 603.1 80.9 L 607.0 77.3 L 610.9 82.2 L 614.7 85.7 L 618.6 84.6 L 622.5 90.2 L 626.4 85.5 L 630.2 94.2 L 634.1 98.8 L 638.0 98.4 L 641.8 107.0 L 645.7 99.9 L 649.6 102.2 L 653.4 102.8 L 657.3 104.6 L 661.2 95.5 L 665.1 99.9 L 668.9 94.8 L 672.8 90.4 L 676.7 92.5 L 680.5 90.9 L 684.4 88.7 L 688.3 91.0 L 692.1 91.4 L 696.0 94.9 L 699.9 99.2 L 703.7 105.1 L 707.6 101.9 L 711.5 114.4 L 715.4 108.2 L 719.2 116.5 L 723.1 121.6 L 727.0 123.4 L 730.8 123.0 L 734.7 125.0 L 738.6 124.4 L 742.4 123.4 L 746.3 125.6 L 750.2 122.4 L 754.0 117.4 L 757.9 118.9 L 761.8 114.9 L 765.7 114.0 L 769.5 111.8 L 773.4 107.1 L 777.3 107.3 L 781.1 110.9 L 785.0 111.5" stroke="url(#seismo)" stroke-width="1.5" fill="none" filter="url(#glow)"/>

  <!-- Title -->
  <text x="400" y="58" text-anchor="middle" font-family="'Courier New', monospace" font-size="38" font-weight="bold" fill="#ffffff" opacity="0.95">DEEP-RISK</text>
  <text x="400" y="82" text-anchor="middle" font-family="'Courier New', monospace" font-size="15" font-weight="bold" fill="#ffa500" opacity="0.85">— OPP —</text>

  <!-- Tagline -->
  <text x="400" y="105" text-anchor="middle" font-family="'Courier New', monospace" font-size="8" fill="#777777">SEE THE CRISIS BEFORE THE SURFACE MOVES</text>

  <!-- Bottom bar -->
  <text x="400" y="268" text-anchor="middle" font-family="'Courier New', monospace" font-size="6" fill="#555555">GOR SEISMOGRAPH  |  CAPITAL FLOW FAULT-LINE SCAN  |  11 FRAMEWORKS  |  6 MASTERS</text>
</svg>